<?xml version="1.0" encoding="UTF-8" standalone="no"?>
<!DOCTYPE svg PUBLIC "-//W3C//DTD SVG 1.1//EN"
 "http://www.w3.org/Graphics/SVG/1.1/DTD/svg11.dtd">
<!-- Generated by graphviz version 2.38.0 (20140413.2041)
 -->
<!-- Title: G Pages: 1 -->
<svg width="346pt" height="628pt"
 viewBox="0.00 0.00 345.75 628.00" xmlns="http://www.w3.org/2000/svg" xmlns:xlink="http://www.w3.org/1999/xlink">
<g id="graph0" class="graph" transform="scale(1 1) rotate(0) translate(4 624)">
<title>G</title>
<polygon fill="white" stroke="none" points="-4,4 -4,-624 341.746,-624 341.746,4 -4,4"/>
<g id="clust1" class="cluster"><title>cluster_Global</title>
<path fill="none" stroke="gray" d="M20,-44C20,-44 317.746,-44 317.746,-44 323.746,-44 329.746,-50 329.746,-56 329.746,-56 329.746,-600 329.746,-600 329.746,-606 323.746,-612 317.746,-612 317.746,-612 20,-612 20,-612 14,-612 8,-606 8,-600 8,-600 8,-56 8,-56 8,-50 14,-44 20,-44"/>
<text text-anchor="middle" x="168.873" y="-599.2" font-family="Times,serif" font-size="11.00" fill="gray">Global</text>
</g>
<g id="clust2" class="cluster"><title>cluster_\Okta</title>
<path fill="none" stroke="gray" d="M28,-52C28,-52 309.746,-52 309.746,-52 315.746,-52 321.746,-58 321.746,-64 321.746,-64 321.746,-572 321.746,-572 321.746,-578 315.746,-584 309.746,-584 309.746,-584 28,-584 28,-584 22,-584 16,-578 16,-572 16,-572 16,-64 16,-64 16,-58 22,-52 28,-52"/>
<text text-anchor="middle" x="168.873" y="-571.2" font-family="Times,serif" font-size="11.00" fill="gray">Okta</text>
</g>
<g id="clust3" class="cluster"><title>cluster_\Okta\Resources</title>
<path fill="none" stroke="gray" d="M36,-160C36,-160 301.746,-160 301.746,-160 307.746,-160 313.746,-166 313.746,-172 313.746,-172 313.746,-544 313.746,-544 313.746,-550 307.746,-556 301.746,-556 301.746,-556 36,-556 36,-556 30,-556 24,-550 24,-544 24,-544 24,-172 24,-172 24,-166 30,-160 36,-160"/>
<text text-anchor="middle" x="168.873" y="-543.2" font-family="Times,serif" font-size="11.00" fill="gray">Resources</text>
</g>
<!-- \\Okta\\Resources\\Authentication -->
<g id="node1" class="node"><title>\\Okta\\Resources\\Authentication</title>
<polygon fill="none" stroke="black" points="305.746,-528 194.746,-528 194.746,-492 305.746,-492 305.746,-528"/>
<text text-anchor="middle" x="250.246" y="-507.2" font-family="Courier,monospace" font-size="11.00">Authentication</text>
</g>
<!-- \\Okta\\Resources\\Base -->
<g id="node8" class="node"><title>\\Okta\\Resources\\Base</title>
<polygon fill="none" stroke="black" points="116,-366 32,-366 32,-330 116,-330 116,-366"/>
<text text-anchor="start" x="40" y="-351.2" font-family="Courier,monospace" font-size="11.00">«abstract»</text>
<text text-anchor="start" x="60" y="-339.2" font-family="Courier,monospace" font-size="11.00">Base</text>
</g>
<!-- \\Okta\\Resources\\Authentication&#45;&gt;\\Okta\\Resources\\Base -->
<g id="edge2" class="edge"><title>\\Okta\\Resources\\Authentication&#45;&gt;\\Okta\\Resources\\Base</title>
<path fill="none" stroke="black" d="M208.319,-491.916C203.576,-489.19 198.94,-486.206 194.746,-483 153.287,-451.313 115.087,-403.712 93.455,-374.318"/>
<polygon fill="none" stroke="black" points="96.2532,-372.215 87.546,-366.179 90.5884,-376.328 96.2532,-372.215"/>
</g>
<!-- \\Okta\\Resources\\Group -->
<g id="node2" class="node"><title>\\Okta\\Resources\\Group</title>
<polygon fill="none" stroke="black" points="277.246,-474 223.246,-474 223.246,-438 277.246,-438 277.246,-474"/>
<text text-anchor="middle" x="250.246" y="-453.2" font-family="Courier,monospace" font-size="11.00">Group</text>
</g>
<!-- \\Okta\\Resources\\Group&#45;&gt;\\Okta\\Resources\\Base -->
<g id="edge3" class="edge"><title>\\Okta\\Resources\\Group&#45;&gt;\\Okta\\Resources\\Base</title>
<path fill="none" stroke="black" d="M223.086,-443.927C213.976,-439.491 203.779,-434.261 194.746,-429 164.419,-411.339 131.496,-388.805 107.862,-371.991"/>
<polygon fill="none" stroke="black" points="109.765,-369.049 99.5962,-366.075 105.691,-374.741 109.765,-369.049"/>
</g>
<!-- \\Okta\\Resources\\App -->
<g id="node3" class="node"><title>\\Okta\\Resources\\App</title>
<polygon fill="none" stroke="black" points="277.246,-420 223.246,-420 223.246,-384 277.246,-384 277.246,-420"/>
<text text-anchor="middle" x="250.246" y="-399.2" font-family="Courier,monospace" font-size="11.00">App</text>
</g>
<!-- \\Okta\\Resources\\App&#45;&gt;\\Okta\\Resources\\Base -->
<g id="edge4" class="edge"><title>\\Okta\\Resources\\App&#45;&gt;\\Okta\\Resources\\Base</title>
<path fill="none" stroke="black" d="M223.159,-393.916C197.52,-385.97 157.707,-373.632 125.807,-363.745"/>
<polygon fill="none" stroke="black" points="126.773,-360.381 116.185,-360.764 124.701,-367.067 126.773,-360.381"/>
</g>
<!-- \\Okta\\Resources\\Session -->
<g id="node4" class="node"><title>\\Okta\\Resources\\Session</title>
<polygon fill="none" stroke="black" points="282.246,-366 218.246,-366 218.246,-330 282.246,-330 282.246,-366"/>
<text text-anchor="middle" x="250.246" y="-345.2" font-family="Courier,monospace" font-size="11.00">Session</text>
</g>
<!-- \\Okta\\Resources\\Session&#45;&gt;\\Okta\\Resources\\Base -->
<g id="edge5" class="edge"><title>\\Okta\\Resources\\Session&#45;&gt;\\Okta\\Resources\\Base</title>
<path fill="none" stroke="black" d="M218.094,-348C192.613,-348 156.054,-348 126.268,-348"/>
<polygon fill="none" stroke="black" points="126.044,-344.5 116.044,-348 126.044,-351.5 126.044,-344.5"/>
</g>
<!-- \\Okta\\Resources\\Event -->
<g id="node5" class="node"><title>\\Okta\\Resources\\Event</title>
<polygon fill="none" stroke="black" points="277.246,-312 223.246,-312 223.246,-276 277.246,-276 277.246,-312"/>
<text text-anchor="middle" x="250.246" y="-291.2" font-family="Courier,monospace" font-size="11.00">Event</text>
</g>
<!-- \\Okta\\Resources\\Event&#45;&gt;\\Okta\\Resources\\Base -->
<g id="edge6" class="edge"><title>\\Okta\\Resources\\Event&#45;&gt;\\Okta\\Resources\\Base</title>
<path fill="none" stroke="black" d="M223.159,-302.084C197.52,-310.03 157.707,-322.368 125.807,-332.255"/>
<polygon fill="none" stroke="black" points="124.701,-328.933 116.185,-335.236 126.773,-335.619 124.701,-328.933"/>
</g>
<!-- \\Okta\\Resources\\Schema -->
<g id="node6" class="node"><title>\\Okta\\Resources\\Schema</title>
<polygon fill="none" stroke="black" points="278.746,-258 221.746,-258 221.746,-222 278.746,-222 278.746,-258"/>
<text text-anchor="middle" x="250.246" y="-237.2" font-family="Courier,monospace" font-size="11.00">Schema</text>
</g>
<!-- \\Okta\\Resources\\Schema&#45;&gt;\\Okta\\Resources\\Base -->
<g id="edge7" class="edge"><title>\\Okta\\Resources\\Schema&#45;&gt;\\Okta\\Resources\\Base</title>
<path fill="none" stroke="black" d="M221.698,-252.752C212.949,-257.038 203.323,-262.005 194.746,-267 164.419,-284.661 131.496,-307.195 107.862,-324.009"/>
<polygon fill="none" stroke="black" points="105.691,-321.259 99.5962,-329.925 109.765,-326.951 105.691,-321.259"/>
</g>
<!-- \\Okta\\Resources\\Role -->
<g id="node7" class="node"><title>\\Okta\\Resources\\Role</title>
<polygon fill="none" stroke="black" points="277.246,-204 223.246,-204 223.246,-168 277.246,-168 277.246,-204"/>
<text text-anchor="middle" x="250.246" y="-183.2" font-family="Courier,monospace" font-size="11.00">Role</text>
</g>
<!-- \\Okta\\Resources\\Role&#45;&gt;\\Okta\\Resources\\Base -->
<g id="edge8" class="edge"><title>\\Okta\\Resources\\Role&#45;&gt;\\Okta\\Resources\\Base</title>
<path fill="none" stroke="black" d="M223.097,-196.456C213.693,-200.845 203.303,-206.46 194.746,-213 153.287,-244.687 115.087,-292.288 93.455,-321.682"/>
<polygon fill="none" stroke="black" points="90.5884,-319.672 87.546,-329.821 96.2532,-323.785 90.5884,-319.672"/>
</g>
<!-- \\Okta\\Client -->
<g id="node9" class="node"><title>\\Okta\\Client</title>
<polygon fill="none" stroke="black" points="278.746,-150 221.746,-150 221.746,-114 278.746,-114 278.746,-150"/>
<text text-anchor="middle" x="250.246" y="-129.2" font-family="Courier,monospace" font-size="11.00">Client</text>
</g>
<!-- \\Okta\\Exception -->
<g id="node10" class="node"><title>\\Okta\\Exception</title>
<polygon fill="none" stroke="black" points="288.746,-96 211.746,-96 211.746,-60 288.746,-60 288.746,-96"/>
<text text-anchor="middle" x="250.246" y="-75.2" font-family="Courier,monospace" font-size="11.00">Exception</text>
</g>
<!-- \\Exception -->
<g id="node11" class="node"><title>\\Exception</title>
<ellipse fill="none" stroke="black" cx="74" cy="-18" rx="48.9926" ry="18"/>
<text text-anchor="middle" x="74" y="-14.3" font-family="Times,serif" font-size="14.00" fill="gray">\Exception</text>
</g>
<!-- \\Okta\\Exception&#45;&gt;\\Exception -->
<g id="edge1" class="edge"><title>\\Okta\\Exception&#45;&gt;\\Exception</title>
<path fill="none" stroke="black" d="M211.437,-64.9809C184.576,-55.7317 148.391,-43.2715 120.035,-33.5074"/>
<polygon fill="none" stroke="black" points="120.954,-30.1223 110.36,-30.1758 118.675,-36.7409 120.954,-30.1223"/>
</g>
</g>
</svg>
